<svg xmlns="http://www.w3.org/2000/svg" width="114" height="106" viewBox="0 0 114 106" version="1.1"><g id="Page-1" stroke="none" stroke-width="1" fill="none" fill-rule="evenodd"><g id="114" fill="#fff"><g id="opbeat_logo"><g id="_x32_"><path d="M72.11 50L61.89 50C60.31 50 59 51.11 59 52.5 59 53.87 60.31 55 61.89 55L72.11 55C73.69 55 75 53.89 75 52.5 75 51.13 73.71 50 72.11 50L72.11 50Z" id="Shape"></path><path d="M81.08 33.02L79.96 32 17 32.04 15.88 33.06C5.76 42.24 0 55.35 0 69 0 82.69 5.82 95.81 15.92 104.98L17.04 106 80 105.96 81.12 104.94C91.24 95.76 97 82.65 97 69 97 55.31 91.2 42.19 81.08 33.02L81.08 33.02ZM72.11 90L61.89 90C60.31 90 59 88.67 59 87 59 85.36 60.31 84 61.89 84L72.11 84C73.69 84 75 85.33 75 87 75 88.64 73.71 90 72.11 90L72.11 90ZM72.11 79L61.89 79C60.31 79 59 77.64 59 76 59 74.36 60.31 73 61.89 73L72.11 73C73.69 73 75 74.33 75 76 75 77.64 73.71 79 72.11 79L72.11 79ZM72.11 66L61.89 66C60.31 66 59 64.67 59 63 59 61.36 60.31 60 61.89 60L72.11 60C73.69 60 75 61.33 75 63 75 64.64 73.71 66 72.11 66L72.11 66ZM40.56 55.25C25.04 49.64 16.99 47.99 14 47.52 15.7 44.8 17.72 42.29 20.07 40.04L76.8 40C80.2 43.27 82.98 47.09 85 51.26 79.56 55.4 64.49 63.92 40.56 55.25L40.56 55.25Z" id="Shape"></path><path d="M100.65 31.56C96.69 26.7 92.26 23.18 87.87 21.4L80.93 21.4 81.04 21.2C81.95 19.66 83.48 16.94 83.5 16.92 85.69 13.68 86.29 11.01 85.3 8.95 84.24 6.73 81.17 5.08 77.67 4.82L11.28 0.04C10.91 0.02 10.57 0 10.24 0 6.09 0 4.73 2.06 4.28 3.3 3.46 5.58 4.47 7.97 7.2 10.27 7.24 10.32 10.35 13.21 13.27 16.25 14.65 17.62 15.76 19.38 16.53 21.44L16.64 28.33 84.02 28.24C84.02 28.24 89.21 30.48 94.33 36.77 101.56 45.68 108.15 61.91 105.14 81L113.36 81C116.28 59.71 108.75 41.53 100.65 31.56L100.65 31.56ZM24.17 20.44L23.98 19.91C23.74 19.4 23.46 18.87 23.14 18.31 22.97 18 22.84 17.76 22.71 17.6L22.71 17.6 22.54 17.33C20.82 14.58 18.56 11.8 16.61 10.11L13 7 76.5 11.73C76.97 11.78 77.29 11.87 77.48 11.93L78 12.13 77.81 12.67C77.72 12.96 77.55 13.27 77.36 13.58L76.93 14.27C75.77 16.04 73.6 20.36 72.8 21.98L24.75 22C24.58 21.44 24.38 20.96 24.17 20.44L24.17 20.44Z" id="Shape"></path></g></g></g></g></svg>